<?xml version="1.0" encoding="UTF-8"?>
<svg width="419px" height="111px" viewBox="0 0 419 111" version="1.1" xmlns="http://www.w3.org/2000/svg" xmlns:xlink="http://www.w3.org/1999/xlink">
    <!-- Generator: Sketch 63.1 (92452) - https://sketch.com -->
    <title>Group 4 Copy 2</title>
    <desc>Created with Sketch.</desc>
    <g id="logo-exploration" stroke="none" stroke-width="1" fill="none" fill-rule="evenodd">
        <g id="Group-4-Copy-2" fill="#1A202C">
            <path d="M44.1669929,111 C48.806184,111 53.1140043,110.335897 57.0904539,109.007692 C61.0669034,107.679487 64.6409741,105.829487 67.812666,103.457692 C70.9843578,101.085897 73.7063322,98.3108974 75.9785891,95.1326923 C78.250846,91.9544872 80.0023773,88.5628205 81.2331831,84.9576923 L81.2331831,84.9576923 L73.138268,80.2615385 C70.9606885,85.6692308 67.7653273,89.9621795 63.5521843,93.1403846 C59.3390414,96.3185897 54.2027941,97.9076923 48.1434424,97.9076923 C44.8297345,97.9076923 41.7763893,97.4333333 38.9834069,96.4846154 C36.1904245,95.5358974 33.7761516,94.0179487 31.7405882,91.9307692 C29.7050247,89.8435897 28.1191788,87.2346154 26.9830503,84.1038462 C25.8469219,80.9730769 25.2788577,77.1782051 25.2788577,72.7192308 L25.2788577,72.7192308 L25.2788577,43.8307692 C25.2788577,35.2923077 27.0777277,29.0307692 30.6754677,25.0461538 C34.2732078,21.0615385 39.2437697,19.0692308 45.5871535,19.0692308 C51.6465051,19.0692308 56.2620269,20.5397436 59.4337188,23.4807692 C62.6054106,26.4217949 64.1912566,30.3115385 64.1912566,35.15 L64.1912566,35.15 L64.1912566,41.5538462 L80.6651189,41.5538462 L80.6651189,9.96153846 L64.1912566,9.96153846 L64.1912566,18.2153846 L63.3391603,18.2153846 C62.771096,17.0769231 61.9189997,15.9147436 60.7828713,14.7288462 C59.6467428,13.5429487 58.2265823,12.475641 56.5223896,11.5269231 C54.818197,10.5782051 52.8063029,9.79551282 50.4867073,9.17884615 C48.1671118,8.56217949 45.4924761,8.25384615 42.4628003,8.25384615 C36.8768355,8.25384615 31.5038947,9.36858974 26.3439781,11.5980769 C21.1840614,13.8275641 16.663217,17.100641 12.7814449,21.4173077 C8.89967274,25.7339744 5.79898889,31.1179487 3.47939333,37.5692308 C1.15979778,44.0205128 0,51.4205128 0,59.7692308 C0,66.9794872 0.970443038,73.7153846 2.91132911,79.9769231 C4.85221519,86.2384615 7.71620562,91.6698718 11.5033004,96.2711538 C15.2903952,100.872436 19.905917,104.477564 25.3498657,107.086538 C30.7938145,109.695513 37.0661902,111 44.1669929,111 Z M148.21549,111 C150.961134,111 153.6121,110.739103 156.168389,110.217308 C158.724678,109.695513 160.80758,108.960256 162.417095,108.011538 L162.417095,108.011538 L162.417095,99.9 L153.896132,99.9 L153.896132,58.3461538 C153.896132,50.2820513 151.43452,44.0442308 146.511297,39.6326923 C141.588074,35.2211538 133.966546,33.0153846 123.646712,33.0153846 C118.534135,33.0153846 114.01329,33.5371795 110.084179,34.5807692 C106.155068,35.624359 102.86503,37 100.214064,38.7076923 C97.5630972,40.4153846 95.5748724,42.3839744 94.2493892,44.6134615 C92.9239061,46.8429487 92.2611645,49.0961538 92.2611645,51.3730769 C92.2611645,54.4089744 93.2079382,56.9230769 95.1014856,58.9153846 C96.995033,60.9076923 99.3619672,61.9038462 102.202288,61.9038462 C105.800028,61.9038462 108.498333,60.9314103 110.297203,58.9865385 C112.096073,57.0416667 112.995508,54.6461538 112.995508,51.8 C112.995508,49.7128205 112.545791,48.0525641 111.646356,46.8192308 C110.746921,45.5858974 109.823817,44.7320513 108.877043,44.2576923 L108.877043,44.2576923 L108.877043,43.5461538 C109.918494,43.0717949 111.1493,42.6923077 112.56946,42.4076923 C113.989621,42.1230769 115.693813,41.9807692 117.682038,41.9807692 C123.078648,41.9807692 126.865743,43.4512821 129.043323,46.3923077 C131.220902,49.3333333 132.309692,53.6974359 132.309692,59.4846154 L132.309692,59.4846154 L132.309692,67.5961538 L122.368568,67.5961538 C100.68745,67.5961538 89.8468915,74.9487179 89.8468915,89.6538462 C89.8468915,96.3897436 91.6694309,101.63141 95.3145096,105.378846 C98.9595884,109.126282 104.805916,111 112.853492,111 C116.072523,111 118.818167,110.620513 121.090424,109.861538 C123.36268,109.102564 125.279897,108.10641 126.842074,106.873077 C128.40425,105.639744 129.682395,104.264103 130.676507,102.746154 C131.67062,101.228205 132.499047,99.6628205 133.161788,98.05 L133.161788,98.05 L134.013884,98.05 L134.013884,98.3346154 C134.013884,101.939744 135.079005,104.951923 137.209246,107.371154 C139.339487,109.790385 143.008235,111 148.21549,111 Z M120.948407,98.1923077 C118.013409,98.1923077 115.646475,97.4807692 113.847605,96.0576923 C112.048735,94.6346154 111.1493,92.4051282 111.1493,89.3692308 L111.1493,89.3692308 L111.1493,87.0923077 C111.1493,83.5820513 112.261759,80.8782051 114.486677,78.9807692 C116.711595,77.0833333 120.096311,76.1346154 124.640825,76.1346154 L124.640825,76.1346154 L132.309692,76.1346154 L132.309692,87.3769231 C132.309692,91.3615385 131.29191,94.1602564 129.256347,95.7730769 C127.220783,97.3858974 124.45147,98.1923077 120.948407,98.1923077 Z M212.861778,111 C217.406291,111 221.501087,110.075 225.146166,108.225 C228.791245,106.375 231.891929,103.742308 234.448218,100.326923 C237.004507,96.9115385 238.969062,92.8083333 240.341884,88.0173077 C241.714706,83.2262821 242.401117,77.8897436 242.401117,72.0076923 C242.401117,66.125641 241.714706,60.7891026 240.341884,55.9980769 C238.969062,51.2070513 237.004507,47.1038462 234.448218,43.6884615 C231.891929,40.2730769 228.791245,37.6403846 225.146166,35.7903846 C221.501087,33.9403846 217.406291,33.0153846 212.861778,33.0153846 C207.7492,33.0153846 203.536057,34.3198718 200.222349,36.9288462 C196.908641,39.5378205 194.589045,42.5025641 193.263562,45.8230769 L193.263562,45.8230769 L192.411466,45.8230769 L192.411466,1.13846154 L162.304062,7.25769231 L162.304062,15.3692308 L170.825025,17.2192308 L170.825025,109.292308 L180.766149,109.292308 L190.707273,97.7653846 L191.417353,97.7653846 C192.742836,101.275641 195.275456,104.358974 199.015212,107.015385 C202.754968,109.671795 207.37049,111 212.861778,111 Z M205.618959,97.9076923 C201.831864,97.9076923 198.683841,96.7217949 196.174891,94.35 C193.665941,91.9782051 192.411466,88.8 192.411466,84.8153846 L192.411466,84.8153846 L192.411466,59.0576923 C192.411466,55.0730769 193.665941,51.8948718 196.174891,49.5230769 C198.683841,47.1512821 201.831864,45.9653846 205.618959,45.9653846 C209.595408,45.9653846 212.909116,47.3410256 215.560083,50.0923077 C218.211049,52.8435897 219.536532,56.875641 219.536532,62.1884615 L219.536532,62.1884615 L219.536532,81.6846154 C219.536532,86.9974359 218.211049,91.0294872 215.560083,93.7807692 C212.909116,96.5320513 209.595408,97.9076923 205.618959,97.9076923 Z M268.424834,24.9038462 C272.401284,24.9038462 275.501968,23.8128205 277.726886,21.6307692 C279.951804,19.4487179 281.064263,16.5076923 281.064263,12.8076923 L281.064263,12.8076923 L281.064263,12.0961538 C281.064263,8.39615385 279.951804,5.45512821 277.726886,3.27307692 C275.501968,1.09102564 272.401284,1.32160949e-12 268.424834,1.32160949e-12 C264.448385,1.32160949e-12 261.347701,1.09102564 259.122783,3.27307692 C256.897864,5.45512821 255.785405,8.39615385 255.785405,12.0961538 L255.785405,12.0961538 L255.785405,12.8076923 C255.785405,16.5076923 256.897864,19.4487179 259.122783,21.6307692 C261.347701,23.8128205 264.448385,24.9038462 268.424834,24.9038462 Z M287.881034,109.292308 L287.881034,99.9 L279.36007,99.9 L279.36007,33.0153846 L249.252667,39.1346154 L249.252667,47.2461538 L257.77363,49.0961538 L257.77363,99.9 L249.252667,99.9 L249.252667,109.292308 L287.881034,109.292308 Z M334.992686,109.292308 L334.992686,99.9 L327.181803,99.9 L327.181803,58.4884615 C327.181803,56.4961538 327.560512,54.8121795 328.317931,53.4365385 C329.07535,52.0608974 330.069463,50.9224359 331.300269,50.0211538 C332.531074,49.1198718 333.951235,48.4557692 335.56075,48.0288462 C337.170265,47.6019231 338.779781,47.3884615 340.389296,47.3884615 C344.5551,47.3884615 347.513768,48.4557692 349.265299,50.5903846 C351.016831,52.725 351.892596,56.3064103 351.892596,61.3346154 L351.892596,61.3346154 L351.892596,99.9 L344.081713,99.9 L344.081713,109.292308 L382,109.292308 L382,99.9 L373.479037,99.9 L373.479037,60.6230769 C373.479037,51.4205128 371.609159,44.5185897 367.869403,39.9173077 C364.129646,35.3160256 357.715255,33.0153846 348.626227,33.0153846 C342.661553,33.0153846 337.975023,34.4147436 334.566638,37.2134615 C331.158253,40.0121795 328.791318,43.3089744 327.465835,47.1038462 L327.465835,47.1038462 L326.755755,47.1038462 L326.755755,33.0153846 L297.074399,39.1346154 L297.074399,47.2461538 L305.595363,49.0961538 L305.595363,99.9 L297.074399,99.9 L297.074399,109.292308 L334.992686,109.292308 Z" id="Cabin-Copy" fill-rule="nonzero"></path>
            <circle id="Oval-Copy-34" cx="406" cy="96" r="13"></circle>
        </g>
    </g>
</svg>